<?xml version="1.0" encoding="utf-8"?>
<!-- Generator: Adobe Illustrator 24.1.0, SVG Export Plug-In . SVG Version: 6.00 Build 0)  -->
<svg version="1.1" id="Capa_1" xmlns="http://www.w3.org/2000/svg" xmlns:xlink="http://www.w3.org/1999/xlink" x="0px" y="0px"
	 viewBox="0 0 979 274" enable-background="new 0 0 979 274" xml:space="preserve">
<rect x="-19" y="-406" display="none" width="1026" height="1026"/>
<g>
	<path fill="#FFFFFF" d="M48.47,265.21C29.03,259.97,13.21,253.25,1,245.02l29.16-55.32c13.21,8.47,27.29,14.89,42.24,19.25
		c14.95,4.36,29.9,6.54,44.85,6.54c14.2,0,25.23-2.06,33.08-6.17s11.77-9.78,11.77-17.01c0-6.23-3.55-11.08-10.65-14.58
		c-7.1-3.49-18.13-7.22-33.08-11.21c-16.95-4.49-31.02-9.03-42.24-13.64c-11.21-4.61-20.87-11.65-28.97-21.12
		c-8.1-9.47-12.15-21.92-12.15-37.38c0-18.69,5.1-35.07,15.32-49.15c10.21-14.08,24.79-24.98,43.73-32.71
		c18.93-7.72,41.12-11.59,66.53-11.59c18.69,0,36.13,1.93,52.33,5.79c16.2,3.87,30.15,9.41,41.86,16.63l-26.91,54.95
		c-10.22-6.48-21.49-11.4-33.83-14.76c-12.33-3.36-24.98-5.05-37.94-5.05c-14.71,0-26.23,2.37-34.57,7.1
		c-8.35,4.74-12.52,10.84-12.52,18.32c0,6.48,3.61,11.46,10.84,14.95c7.22,3.49,18.44,7.23,33.64,11.21
		c16.94,4.24,30.96,8.6,42.05,13.08c11.09,4.49,20.62,11.34,28.59,20.56c7.97,9.22,11.96,21.31,11.96,36.26
		c0,18.44-5.17,34.7-15.51,48.78c-10.34,14.08-25.04,24.99-44.11,32.71c-19.06,7.72-41.18,11.59-66.35,11.59
		C88.47,273.06,67.91,270.44,48.47,265.21z"/>
	<path fill="#F62937" d="M428.61,136.63l71.02,131.2h-79.99l-39.62-78.49l-68.4,78.49h-88.59L347.5,132.51L280.59,6.18h78.87
		l38.13,75.13l66.53-75.13h83.73L428.61,136.63z"/>
	<path fill="#FFFFFF" d="M978.07,6.18L840.89,267.82h-79.24l-19.06-157.74l-83.35,157.74h-79.62L547.47,6.18h72.89l20.18,167.08
		L728.76,6.18h68.4l18.69,169.32L904.81,6.18H978.07z"/>
</g>
<g>
</g>
<g>
</g>
<g>
</g>
<g>
</g>
<g>
</g>
<g>
</g>
<g>
</g>
<g>
</g>
<g>
</g>
<g>
</g>
<g>
</g>
<g>
</g>
<g>
</g>
<g>
</g>
<g>
</g>
</svg>
